#N canvas 280 -606 558 421 12;
#X text 169 254 update <preset> <param> <value>;
#X text 339 21 \$1: Name of [preset_list];
#X text 339 61 \$3: Name of param;
#X text 339 41 \$2: Name of preset;
#X msg 15 253 update \$1 \$2 \$3;
#X obj 15 194 list prepend \$2;
#X obj 15 120 list prepend \$3;
#X obj 230 128 loadbang;
#X obj 230 172 symbol \$1;
#X obj 15 18 inlet;
#X obj 15 353 s;
#X floatatom 25 76 5 0 0 0 - - -;
#X obj 15 52 route float set_param set_preset set_plist;
#X obj 183 213 makefilename %s-rcv;
#X obj 306 89 print [preset.s] unknown message;
#X obj 87 81 symbol;
#X obj 160 80 symbol;
#X obj 233 82 symbol;
#X text 46 354 send <plist_name>-rcv;
#X connect 4 0 10 0;
#X connect 5 0 4 0;
#X connect 6 0 5 0;
#X connect 7 0 8 0;
#X connect 8 0 13 0;
#X connect 9 0 12 0;
#X connect 12 0 6 0;
#X connect 12 0 11 0;
#X connect 12 1 15 0;
#X connect 12 2 16 0;
#X connect 12 3 17 0;
#X connect 12 4 14 0;
#X connect 13 0 10 1;
#X connect 15 0 6 1;
#X connect 16 0 5 1;
#X connect 17 0 13 0;
