#N canvas 617 -939 623 761 12;
#X declare -lib guis;
#X obj 22 360 hsl 140 22 0 139 0 0 empty empty empty -4 -10 0 12 -91412
-174938 -203556 5000 1;
#X floatatom 28 333 5 0 0 0 - - -;
#N canvas 422 23 295 351 lb 0;
#X obj 45 42 loadbang;
#X msg 77 123 rm_all;
#X obj 59 67 bng 24 250 50 0 empty empty empty 30 11 0 12 -91412 -174938
-203556;
#X obj 45 300 outlet;
#X obj 45 96 t b b;
#X msg 85 160 add_param preset1 param1 0.2;
#X msg 85 190 add_param preset1 param2 100;
#X msg 85 220 add_param preset2 param1 50;
#X msg 85 250 add_param preset2 param2 130;
#X connect 0 0 4 0;
#X connect 1 0 3 0;
#X connect 2 0 4 0;
#X connect 4 0 5 0;
#X connect 4 0 6 0;
#X connect 4 0 7 0;
#X connect 4 0 8 0;
#X connect 4 1 1 0;
#X connect 5 0 3 0;
#X connect 6 0 3 0;
#X connect 7 0 3 0;
#X connect 8 0 3 0;
#X restore 40 200 pd lb;
#X text 87 201 loadbang to setup the example, f 30;
#X text 14 669 1) symbol - name of plist;
#X text 1 588 ======================================================================================messages
, f 86;
#X text 1 521 ======================================================================================outlets
, f 86;
#X text 3 453 ======================================================================================inlets
, f 86;
#X text 1 623 ======================================================================================arguments
, f 86;
#X text 1 723 ==============================================================================================================================================================================
, f 87;
#X msg 19 141 symbol preset1;
#X obj 19 299 preset.r plist param1;
#X obj 19 401 preset.s plist preset1 param1;
#X msg 29 168 symbol preset2;
#X obj 471 6 declare -lib guis;
#X text 3 29 [preset.r] and [preset.s] are used to interface with [plist].
[preset.r] takes the ouput from a plist and the then outputs the value
of the specified parameter. If the parameter doesn't exist \, it doesn't
output anything. [preset.s] is used to update the various parameters
in presets. It is essentially a wrapper for the update message. The
various set messages can be used to have it update different plists
\, presets and their parameters., f 84;
#X text 14 693 2) symbol - name of param;
#X text 29 497 1) list - output from a [plist];
#X text 29 559 1) float - value of the specified parameter;
#X obj 19 255 plist plist ;
#X connect 0 0 12 0;
#X connect 2 0 19 0;
#X connect 10 0 19 0;
#X connect 11 0 0 0;
#X connect 11 0 1 0;
#X connect 13 0 19 0;
#X connect 19 0 11 0;
